<svg id="Group_2" data-name="Group 2" xmlns="http://www.w3.org/2000/svg" xmlns:xlink="http://www.w3.org/1999/xlink" width="318" height="60.725" viewBox="0 0 318 60.725">
  <defs>
    <clipPath id="clip-path">
      <rect id="Rectangle_395" data-name="Rectangle 395" width="318" height="60.725" fill="none"/>
    </clipPath>
  </defs>
  <g id="Group_875" data-name="Group 875" clip-path="url(#clip-path)">
    <path id="Path_491" data-name="Path 491" d="M25.218,26.182a2.5,2.5,0,0,1-2.5,0l-3.493-2.016a.834.834,0,0,1,0-1.444L41.946,9.6l-5.992-3.46L13.236,19.261a2.5,2.5,0,0,1-2.5,0l-3.5-2.019a.83.83,0,0,1,0-1.438L29.962,2.685,26.473.671a5.007,5.007,0,0,0-5.007,0L2.5,11.619A5.006,5.006,0,0,0,0,15.954V44.773A5,5,0,0,0,2.5,49.1L21.467,60.055a5,5,0,0,0,5,0l18.965-10.95a5,5,0,0,0,2.5-4.334v-4.03L26.47,53.136a5,5,0,0,1-5,0L6.827,44.683a1.669,1.669,0,0,1-.834-1.445V38.721A.831.831,0,0,1,7.239,38l14.229,8.215a5,5,0,0,0,5,0L47.938,33.822V26.9L26.471,39.3a5,5,0,0,1-5,0L6.828,30.845A1.672,1.672,0,0,1,5.992,29.4v-4.5a.837.837,0,0,1,1.256-.725l14.218,8.209a5.005,5.005,0,0,0,5.006,0L47.938,19.983V15.954a5,5,0,0,0-.671-2.5Z" transform="translate(0 0)" fill="#fff"/>
    <path id="Path_492" data-name="Path 492" d="M441.5,106.614l-6-1.714c-2.333-.667-3.524-1.381-3.524-3.143,0-1.857,1.714-3.143,5.81-3.143a20.313,20.313,0,0,1,9.953,2.714l1.9-6.238a26.569,26.569,0,0,0-11.62-2.572c-8.905,0-12.953,4.429-12.953,9.81,0,4.381,2.524,7.381,7.429,8.667l6.143,1.667c2.9.81,4.619,1.667,4.619,3.429,0,2.143-2.191,3.619-6.1,3.619a19.272,19.272,0,0,1-10-3.048L425.6,123a25.731,25.731,0,0,0,11.429,2.81c7.81,0,13.191-4.143,13.191-10.239,0-4.619-2.857-7.286-8.715-8.953" transform="translate(-361.934 -78.775)" fill="#fff"/>
    <path id="Path_493" data-name="Path 493" d="M900.855,122.5c-3.381,0-6.524-3.572-9.572-6.524,5.191-.81,9.144-4.667,9.144-10.048,0-7.953-6.524-10.525-12.906-10.525H873.282v32.383h6.667V116.118h3.239c4.048,3,9.381,12.144,16.62,12.144a11.969,11.969,0,0,0,1.9-.158V122.45a8.055,8.055,0,0,1-.848.049m-12.62-11.62h-8.287v-9.667h8.287c3.048,0,5.238,1.667,5.238,4.857,0,3-2.191,4.81-5.238,4.81" transform="translate(-743.565 -81.231)" fill="#fff"/>
    <path id="Path_494" data-name="Path 494" d="M639.853,113.389h6.667v4.238a13.359,13.359,0,0,1-6.715,1.714c-6.191,0-10.763-3.81-10.763-10.429,0-6.715,4.572-10.525,10.477-10.525a14.011,14.011,0,0,1,9.334,3.286l3.1-5.1A19.4,19.4,0,0,0,639.377,92.2c-9.572,0-17.239,6.191-17.239,16.716,0,10.429,7.667,16.62,17.239,16.62,4.953,0,10.81-2.048,13.811-4.429V107.673H639.853Z" transform="translate(-529.726 -78.502)" fill="#fff"/>
    <path id="Path_495" data-name="Path 495" d="M1169.349,118.948h10.424v-1.23h-9.093v-5.3h7.621v-1.23h-7.621v-4.718h9.093v-1.23h-10.424Z" transform="translate(-995.654 -89.606)" fill="#fff"/>
    <path id="Path_496" data-name="Path 496" d="M1387.319,113.262h7.6v-1.23h-7.6v-5.565h8.69v-1.23h-10.021v13.71h1.331Z" transform="translate(-1180.114 -89.606)" fill="#fff"/>
    <path id="Path_497" data-name="Path 497" d="M1391.419,236.671h10.424v-1.23h-9.093v-5.3h7.621v-1.23h-7.621V224.19h9.093v-1.23h-10.424Z" transform="translate(-1184.738 -189.842)" fill="#fff"/>
    <path id="Path_498" data-name="Path 498" d="M1967.689,117.718h-8.327l8.327-11.452v-1.028h-10.1v1.23h8.347l-8.347,11.452v1.028h10.1Z" transform="translate(-1666.808 -89.606)" fill="#fff"/>
    <path id="Path_499" data-name="Path 499" d="M2055.837,115.622h7.46l1.371,3.327h1.391l-5.585-13.71H2058.9l-5.887,13.71h1.391Zm3.851-8.992,3.246,7.924h-6.694Z" transform="translate(-1748.059 -89.606)" fill="#fff"/>
    <rect id="Rectangle_392" data-name="Rectangle 392" width="1.371" height="13.71" transform="translate(221.441 15.632)" fill="#fff"/>
    <rect id="Rectangle_393" data-name="Rectangle 393" width="1.371" height="13.71" transform="translate(247.531 15.632)" fill="#fff"/>
    <path id="Path_500" data-name="Path 500" d="M1169.349,236.671h10.424v-1.23h-9.093v-5.3h7.621v-1.23h-7.621V224.19h9.093v-1.23h-10.424Z" transform="translate(-995.654 -189.842)" fill="#fff"/>
    <path id="Path_501" data-name="Path 501" d="M1282.53,113.262h7.6v-1.23h-7.6v-5.565h8.69v-1.23H1281.2v13.71h1.331Z" transform="translate(-1090.89 -89.606)" fill="#fff"/>
    <path id="Path_502" data-name="Path 502" d="M1282.122,234.514l-9.738-11.553h-1.23v13.71h1.371V225.158l9.738,11.513h1.23v-13.71h-1.371Z" transform="translate(-1082.337 -189.842)" fill="#fff"/>
    <rect id="Rectangle_394" data-name="Rectangle 394" width="1.371" height="13.711" transform="translate(283.643 33.118)" fill="#fff"/>
    <path id="Path_503" data-name="Path 503" d="M1847.083,105.237h-1.371V116.79l-9.738-11.553h-1.23v13.71h1.371V107.435l9.738,11.513h1.23Z" transform="translate(-1562.211 -89.605)" fill="#fff"/>
    <path id="Path_504" data-name="Path 504" d="M2058.9,222.961l-5.888,13.71h1.391l1.432-3.327h7.46l1.371,3.327h1.391l-5.585-13.71Zm-2.662,9.315,3.448-7.924,3.246,7.924Z" transform="translate(-1748.059 -189.842)" fill="#fff"/>
    <path id="Path_505" data-name="Path 505" d="M1805.7,224.332h5.3v12.339h1.371V224.332h5.02v-1.371H1805.7Z" transform="translate(-1537.479 -189.842)" fill="#fff"/>
    <path id="Path_506" data-name="Path 506" d="M1956.964,234.427c-3.327,0-5.565-2.137-5.565-5.747,0-3.649,2.238-5.787,5.525-5.787,2.783,0,4.275,1.573,4.355,4.153l1.27-.262c-.081-3.206-2.1-5.182-5.6-5.182-4.053,0-6.956,2.621-6.956,7.077,0,4.416,2.9,7.037,6.956,7.037a8.517,8.517,0,0,0,5.625-2.218l-.726-1.048a7.486,7.486,0,0,1-4.879,1.976" transform="translate(-1660.337 -188.687)" fill="#fff"/>
    <path id="Path_507" data-name="Path 507" d="M1722.894,118.948h10.424v-1.23h-9.093v-5.3h7.621v-1.23h-7.621v-4.718h9.093v-1.23h-10.424Z" transform="translate(-1466.975 -89.606)" fill="#fff"/>
    <path id="Path_508" data-name="Path 508" d="M1553.13,114.728a7.485,7.485,0,0,1-4.879,1.976c-3.327,0-5.565-2.137-5.565-5.746,0-3.649,2.238-5.787,5.524-5.787,2.783,0,4.275,1.573,4.355,4.154l1.27-.262c-.081-3.206-2.1-5.182-5.6-5.182-4.053,0-6.956,2.621-6.956,7.077,0,4.416,2.9,7.037,6.956,7.037a8.517,8.517,0,0,0,5.625-2.218Z" transform="translate(-1312.334 -88.451)" fill="#fff"/>
    <path id="Path_509" data-name="Path 509" d="M1601.211,229.467h4.92v3.75a7.849,7.849,0,0,1-4.255,1.21c-3.347,0-5.968-2.137-5.968-5.747a5.565,5.565,0,0,1,5.908-5.787,6.372,6.372,0,0,1,4.456,1.694l.706-1.049a7.476,7.476,0,0,0-5.182-1.935c-4.053,0-7.3,2.621-7.3,7.077,0,4.416,3.246,7.037,7.3,7.037a10.2,10.2,0,0,0,5.706-1.774v-5.686h-6.291Z" transform="translate(-1357.65 -188.687)" fill="#fff"/>
    <path id="Path_510" data-name="Path 510" d="M1499.172,231.509h.242a4.28,4.28,0,0,0,4.537-4.234c0-3.065-2.359-4.315-4.819-4.315h-5.907v13.711h1.371v-5.161h2.782c1.512,1.008,3.71,5.363,6.754,5.363.062,0,.121-.01.182-.013v-1.2c-1.976,0-3.77-2.742-5.142-4.153m-4.577-1.129v-6.19h4.658a2.992,2.992,0,0,1,3.286,3.125,3.044,3.044,0,0,1-3.286,3.065Z" transform="translate(-1271.42 -189.842)" fill="#fff"/>
    <path id="Path_511" data-name="Path 511" d="M1715.837,236.671h10.424v-1.23h-9.093v-5.3h7.621v-1.23h-7.621V224.19h9.093v-1.23h-10.424Z" transform="translate(-1460.967 -189.842)" fill="#fff"/>
  </g>
</svg>
